<svg width="193" height="50" viewBox="0 0 193 50" fill="none" xmlns="http://www.w3.org/2000/svg">
<rect width="193" height="50" rx="25" fill="#C63663"/>
<path d="M53.3381 6.41968H49.1388C47.3503 6.41968 46.0438 7.7252 46.0438 9.51252V22.6143C46.0438 24.4017 47.3503 25.7072 49.1388 25.7072H53.3381C59.357 25.7072 63.5562 21.744 63.5562 16.0557C63.5562 10.3829 59.357 6.41968 53.3381 6.41968ZM53.5403 20.5784H51.394V11.533H53.5403C56.2775 11.533 58.1905 13.398 58.1905 16.0557C58.1905 18.7289 56.2775 20.5784 53.5403 20.5784Z" fill="white"/>
<path d="M81.5977 8.73538C81.5977 7.1501 80.4779 6 78.9227 6C77.3674 6 76.2476 7.1501 76.2476 8.73538V17.7186C76.2476 19.4593 74.9411 20.8114 73.2615 20.8114C71.5818 20.8114 70.2753 19.4438 70.2753 17.7186V8.73538C70.2753 7.1501 69.1555 6 67.6002 6C66.045 6 64.9252 7.1501 64.9252 8.73538V17.9673C64.9252 22.7697 68.3623 26.1268 73.2615 26.1268C78.1761 26.1268 81.5977 22.7697 81.5977 17.9673V8.73538Z" fill="white"/>
<path d="M117.073 21.1223L112.516 15.9779L116.762 11.0045C117.384 10.2896 117.711 9.5591 117.711 8.8908C117.711 7.27444 116.466 6 114.88 6C114.071 6 113.325 6.43517 112.594 7.35215L107.788 13.771V8.73538C107.788 7.10348 106.715 6 105.113 6C103.511 6 102.438 7.10348 102.438 8.73538V23.3759C102.438 25.0078 103.511 26.1112 105.113 26.1112C106.715 26.1112 107.788 25.0078 107.788 23.3759V18.2936L112.936 24.8523C113.682 25.7538 114.32 26.1112 115.144 26.1112C116.731 26.1112 117.882 24.899 117.882 23.2204C117.897 22.4744 117.602 21.7129 117.073 21.1223Z" fill="white"/>
<path d="M124.632 8.73538C124.632 7.10348 123.559 6 121.957 6C120.355 6 119.281 7.10348 119.281 8.73538V23.3759C119.281 25.0078 120.355 26.1112 121.957 26.1112C123.559 26.1112 124.632 25.0078 124.632 23.3759V8.73538Z" fill="white"/>
<path d="M149.982 8.89081C150.153 7.41433 149.049 6.46627 147.914 6.34194C146.981 6.23315 146.25 6.5129 145.768 7.1812C145.41 7.67854 145.177 8.42455 145.037 9.62128C144.897 10.8491 144.912 11.6728 145.083 12.2168C145.332 12.9472 145.892 13.3824 146.654 13.4757C148.116 13.6466 148.8 12.4654 149.64 10.0875C149.827 9.5902 149.951 9.12394 149.982 8.89081Z" fill="white"/>
<path d="M88.8764 15.9002V23.3759C88.8764 25.0078 87.8033 26.1112 86.2013 26.1112C84.5994 26.1112 83.5262 25.0078 83.5262 23.3759V8.73538C83.5262 7.10348 84.5994 6 86.2013 6C86.979 6 87.6788 6.27976 88.0988 6.69939C88.5031 7.11902 95.2375 16.211 95.2375 16.211V8.73538C95.2375 7.10348 96.3106 6 97.9126 6C99.5145 6 100.588 7.10348 100.588 8.73538V23.3759C100.588 25.0078 99.5145 26.1112 97.9126 26.1112C97.1349 26.1112 96.435 25.8315 96.0151 25.4118C95.6107 24.9922 88.8764 15.9002 88.8764 15.9002Z" fill="white"/>
<path d="M131.848 15.9002V23.3759C131.848 25.0078 130.775 26.1112 129.173 26.1112C127.571 26.1112 126.498 25.0078 126.498 23.3759V8.73538C126.498 7.10348 127.571 6 129.173 6C129.951 6 130.651 6.27976 131.071 6.69939C131.475 7.11902 138.21 16.211 138.21 16.211V8.73538C138.21 7.10348 139.283 6 140.885 6C142.487 6 143.56 7.10348 143.56 8.73538V23.3759C143.56 25.0078 142.487 26.1112 140.885 26.1112C140.107 26.1112 139.407 25.8315 138.987 25.4118C138.583 24.9922 131.848 15.9002 131.848 15.9002Z" fill="white"/>
<path d="M146.406 24.1219H145.955C145.862 24.1219 145.8 24.1841 145.8 24.2774V25.3498C145.8 25.443 145.862 25.5052 145.94 25.5052C146.017 25.5052 146.08 25.443 146.08 25.3498V25.0078H146.251L146.577 25.443C146.608 25.4896 146.655 25.5052 146.702 25.5052C146.795 25.5052 146.842 25.443 146.842 25.3653C146.842 25.3342 146.826 25.3031 146.795 25.2565L146.593 24.9768L146.655 24.9301C146.764 24.8524 146.826 24.7281 146.826 24.5882C146.842 24.2929 146.671 24.1219 146.406 24.1219ZM146.313 24.7903H146.111V24.3395H146.313C146.453 24.3395 146.562 24.4328 146.562 24.5727C146.562 24.7125 146.453 24.7903 146.313 24.7903Z" fill="white"/>
<path d="M146.313 23.4846C145.566 23.4846 144.96 24.0752 144.96 24.8057C144.96 25.5361 145.566 26.1267 146.313 26.1267C147.059 26.1267 147.666 25.5361 147.666 24.8057C147.666 24.0752 147.059 23.4846 146.313 23.4846ZM146.313 25.8781C145.722 25.8781 145.24 25.3963 145.24 24.8057C145.24 24.2151 145.722 23.7177 146.313 23.7177C146.904 23.7177 147.401 24.1995 147.401 24.8057C147.386 25.3963 146.904 25.8781 146.313 25.8781Z" fill="white"/>
<path d="M75.0963 32.8564C76.0606 32.8564 76.7294 32.2037 76.7294 31.2556C76.7294 30.3075 76.0606 29.6548 75.0963 29.6548H68.5331C67.3511 29.6548 66.5579 30.463 66.5579 31.6442V41.6998C66.5579 42.8965 67.3511 43.6891 68.5331 43.6891H75.0963C76.0606 43.6891 76.7294 43.0364 76.7294 42.0883C76.7294 41.1403 76.0606 40.4875 75.0963 40.4875H70.4616V37.7521H73.8832C74.6609 37.7521 75.2052 37.2237 75.2052 36.4466C75.2052 35.6851 74.6609 35.1411 73.8832 35.1411H70.4616V32.8409H75.0963V32.8564Z" fill="white"/>
<path d="M86.2634 39.9746H81.7531V31.3489C81.7531 30.1521 80.9754 29.3595 79.809 29.3595C78.6425 29.3595 77.8649 30.1677 77.8649 31.3489V41.6998C77.8649 42.8965 78.6425 43.6891 79.809 43.6891H86.2634C87.4454 43.6891 88.2541 42.9276 88.2541 41.8241C88.2541 40.7362 87.4298 39.9746 86.2634 39.9746Z" fill="white"/>
<path d="M91.3649 29.3595C90.1984 29.3595 89.4208 30.1677 89.4208 31.3489V42.0106C89.4208 43.2073 90.1984 44 91.3649 44C92.5313 44 93.309 43.1918 93.309 42.0106V31.3489C93.309 30.1521 92.5313 29.3595 91.3649 29.3595Z" fill="white"/>
<path d="M106.326 29.3595C105.424 29.3595 104.818 29.8258 104.429 30.8204L103.371 33.5092L101.474 38.638L99.5763 33.4936L98.5187 30.8204C98.1144 29.8258 97.5078 29.3595 96.6058 29.3595C95.3149 29.3595 94.4595 30.1366 94.4595 31.2867C94.4595 31.6286 94.5372 31.9705 94.6928 32.3435L99.0009 41.9484C99.623 43.3317 100.152 44 101.458 44C102.765 44 103.293 43.3317 103.916 41.9484L108.224 32.328C108.379 31.9705 108.457 31.6131 108.457 31.2867C108.473 30.1211 107.602 29.3595 106.326 29.3595Z" fill="white"/>
<path d="M118.162 32.8564C119.126 32.8564 119.795 32.2037 119.795 31.2556C119.795 30.3075 119.126 29.6548 118.162 29.6548H111.599C110.417 29.6548 109.623 30.463 109.623 31.6442V41.6998C109.623 42.8965 110.417 43.6891 111.599 43.6891H118.162C119.126 43.6891 119.795 43.0364 119.795 42.0883C119.795 41.1403 119.126 40.4875 118.162 40.4875H113.527V37.7521H116.949C117.726 37.7521 118.271 37.2237 118.271 36.4466C118.271 35.6851 117.726 35.1411 116.949 35.1411H113.527V32.8409H118.162V32.8564Z" fill="white"/>
<path d="M140.729 35.4519L139.174 34.8458C138.474 34.5816 137.665 34.2707 137.665 33.4159C137.665 32.7632 138.209 32.2658 138.94 32.2658C139.796 32.2658 140.278 32.7321 140.682 33.245C141.118 33.7889 141.646 34.0998 142.175 34.0998C143.186 34.0998 143.995 33.2761 143.995 32.2658C143.995 31.8151 143.808 31.3644 143.466 30.9759C142.486 29.8413 141.149 29.3595 139.127 29.3595C136.016 29.3595 133.917 31.0536 133.917 33.5558C133.917 35.312 134.834 36.5399 136.716 37.3325L138.878 38.2184C139.282 38.3893 140.2 38.7624 140.2 39.6638C140.2 40.2699 139.78 40.876 138.862 40.876C138.132 40.876 137.416 40.472 136.903 39.7726C136.467 39.1664 135.907 38.8401 135.285 38.8401C134.43 38.8401 133.512 39.5084 133.512 40.5963C133.512 41.1558 133.746 41.6998 134.197 42.2437C135.488 43.829 137.852 44 138.8 44C141.973 44 144.119 42.2437 144.119 39.6172C144.119 37.5035 143.233 36.4155 140.729 35.4519Z" fill="white"/>
<path d="M126.343 36.4777H124.85V32.3125H126.343C127.618 32.3125 128.536 33.1828 128.536 34.3951C128.536 35.6073 127.603 36.4777 126.343 36.4777ZM129.827 38.5603L130.355 38.1873C131.537 37.348 132.175 35.9959 132.175 34.3951C132.175 31.5509 130.138 29.6548 127.105 29.6548H122.906C121.739 29.6548 120.962 30.463 120.962 31.6442V41.9951C120.962 43.1918 121.739 43.9844 122.906 43.9844C124.072 43.9844 124.85 43.1762 124.85 41.9951V38.638H125.285L128.753 43.0364C129.018 43.3938 129.593 43.9689 130.433 43.9689C131.522 43.9689 132.362 43.1141 132.362 42.0417C132.362 41.5443 132.144 41.0004 131.786 40.6274L129.827 38.5603Z" fill="white"/>
<path d="M58.1127 39.9746H56.8685V33.3848H58.1127C60.1035 33.3848 61.4877 34.737 61.4877 36.6797C61.5032 38.6225 60.1035 39.9746 58.1127 39.9746ZM57.9572 29.6548H55.2199C55.2043 29.6548 55.2043 29.6548 55.1888 29.6548C55.1732 29.6548 55.1732 29.6548 55.1577 29.6548H46.8525C46.417 29.6548 46.0593 30.0123 46.0593 30.4474C46.0593 30.8204 46.3237 31.1313 46.6659 31.209H52.9181C53.3536 31.209 53.7113 31.5664 53.7113 32.0016C53.7113 32.4368 53.3536 32.7943 52.9181 32.7943H44.6751C44.3019 32.8564 44.0063 33.1673 44.0063 33.5713C44.0063 33.9444 44.2707 34.2707 44.6285 34.3484H52.9181C53.3536 34.3484 53.7113 34.7059 53.7113 35.1411C53.7113 35.5763 53.3536 35.9337 52.9181 35.9337H50.3052C49.9475 36.0114 49.6831 36.3223 49.6831 36.7108C49.6831 37.0994 49.9786 37.4257 50.3519 37.4879H52.9181C53.3536 37.4879 53.7113 37.8454 53.7113 38.2805C53.7113 38.7157 53.3536 39.0732 52.9181 39.0732H44.6129C44.2552 39.1509 44.0063 39.4617 44.0063 39.8347C44.0063 40.2388 44.3174 40.5807 44.7218 40.6118H52.9181C53.3536 40.6118 53.7113 40.9693 53.7113 41.4045C53.7113 41.8396 53.3536 42.1971 52.9181 42.1971H49.9008C49.5587 42.2904 49.3098 42.5857 49.3098 42.9587C49.3098 43.3938 49.6676 43.7513 50.103 43.7513H55.251H56.0286H57.9883C62.3742 43.7513 65.4225 40.8605 65.4225 36.7264C65.4069 32.5456 62.3431 29.6548 57.9572 29.6548Z" fill="white"/>
<path d="M48.2833 37.4568C48.6566 37.3946 48.9521 37.0683 48.9521 36.6797C48.9521 36.3067 48.6877 35.9803 48.33 35.9026H42.8398C42.8087 35.9026 42.7621 35.9026 42.731 35.8871C42.3266 35.9182 42 36.2445 42 36.6642C42 37.0838 42.3422 37.4257 42.7621 37.4413C42.7932 37.4413 42.8243 37.4257 42.8554 37.4257H48.2833V37.4568Z" fill="white"/>
<path d="M46.059 42.9121C46.059 43.3472 46.4167 43.7047 46.8522 43.7047H47.8631C48.2986 43.7047 48.6563 43.3472 48.6563 42.9121C48.6563 42.5391 48.4074 42.2438 48.0653 42.1505H46.6655C46.3234 42.2282 46.059 42.5391 46.059 42.9121Z" fill="white"/>
</svg>
